<svg xmlns="http://www.w3.org/2000/svg" width="40" height="28" viewBox="0 0 40 28">
    <g fill="none" fill-rule="evenodd">
        <path fill="#E4B74B" d="M30.605 23.95l1.265 2.149h5.04c.515 0 1.13.328 1.372.733.242.404.019.732-.498.732h-19.96c-.517 0-1.12-.328-1.347-.732-.227-.405.007-.733.522-.733h5.04l-1.229-2.15h9.795zM28.27 5c.992 0 2.198.657 2.689 1.465l8.84 14.555c.49.807.057 1.465-.965 1.465h-27.95c-1.023 0-2.218-.658-2.665-1.465L.174 6.465C-.273 5.657.17 5 1.163 5h27.106z" opacity=".1"/>
        <path fill="#E4B74B" d="M30.605 18.95l1.265 2.149h5.04c.515 0 1.13.328 1.372.733.242.404.019.732-.498.732h-19.96c-.517 0-1.12-.328-1.347-.732-.227-.405.007-.733.522-.733h5.04l-1.229-2.15h9.795zM28.27 0c.992 0 2.198.657 2.689 1.465l8.84 14.555c.49.807.057 1.465-.965 1.465h-27.95c-1.023 0-2.218-.658-2.665-1.465L.174 1.465C-.273.657.17 0 1.163 0h27.106z"/>
        <path fill="#FFF" d="M26.862 2.742c.694 0 1.539.452 1.882 1.006l6.188 9.989c.344.554.04 1.005-.675 1.005l-21.71.006c-.717 0-1.553-.451-1.866-1.006L5.05 3.754c-.313-.555-.002-1.006.692-1.006l21.12-.006z"/>
    </g>
</svg>
