<?xml version="1.0" encoding="UTF-8"?>
<!DOCTYPE svg PUBLIC "-//W3C//DTD SVG 1.1//EN" "http://www.w3.org/Graphics/SVG/1.1/DTD/svg11.dtd">
<!-- Creator: CorelDRAW 2020 (64-Bit) -->
<svg xmlns="http://www.w3.org/2000/svg" xml:space="preserve" width="130.24mm" height="140.226mm" version="1.1" style="shape-rendering:geometricPrecision; text-rendering:geometricPrecision; image-rendering:optimizeQuality; fill-rule:evenodd; clip-rule:evenodd"
viewBox="0 0 1846.69 1988.28"
 xmlns:xlink="http://www.w3.org/1999/xlink"
 xmlns:xodm="http://www.corel.com/coreldraw/odm/2003">
 <defs>
  <style type="text/css">
   <![CDATA[
    .fil2 {fill:white}
    .fil1 {fill:#E4B74B;fill-rule:nonzero}
    .fil0 {fill:#E4B74B;fill-rule:nonzero;fill-opacity:0.101961}
   ]]>
  </style>
 </defs>
 <g id="Слой_x0020_1">
  <metadata id="CorelCorpID_0Corel-Layer"/>
  <g id="_333961255120">
   <path class="fil0" d="M731.23 190.08l-607.48 0c-103.28,0 -152.84,84.21 -106.02,187.46l645.53 1423.49c46.82,103.25 170.81,187.25 274.09,187.25l608.19 -0.66c103.26,0 149.65,-84.01 102.82,-187.27l-644.38 -1422.91c-47.01,-103.62 -169.05,-187.36 -272.74,-187.36zm-340.53 112.39l176.25 0c15.48,0 33.79,12.57 40.83,28.09 7.04,15.52 0.13,28.09 -15.35,28.09l-176.25 0c-15.52,0 -33.79,-12.57 -40.83,-28.09 -7.04,-15.53 -0.17,-28.09 15.35,-28.09zm-101.85 8.94c5.7,-10.4 24.59,-10.54 39.76,0 7.57,5.2 13.97,12.5 17.35,19.95 3.32,7.31 3.53,14.6 0.68,19.81 -2.82,5.21 -8.75,8.28 -16.05,8.28 -7.44,0 -15.99,-3.07 -23.71,-8.28 -7.54,-5.2 -13.81,-12.5 -17.13,-19.81 -3.39,-7.46 -3.73,-14.75 -0.91,-19.95zm923.54 1621.18c-46.36,0 -101.18,-37.73 -122.2,-84.08 -21.02,-46.36 -0.42,-84.08 45.94,-84.08 46.36,0 101.17,37.72 122.2,84.08 21.02,46.35 0.41,84.08 -45.94,84.08zm307.44 -225.31l-800.74 0 -566.98 -1250.28 800.74 0 566.98 1250.28z"/>
   <g>
    <path class="fil1" d="M911.31 0l-607.48 0c-103.28,0 -152.84,84.21 -106.02,187.46l645.53 1423.49c46.82,103.25 170.81,187.25 274.09,187.25l608.19 -0.66c103.26,0 149.65,-84.01 102.82,-187.27l-644.38 -1422.91c-47.01,-103.62 -169.05,-187.36 -272.74,-187.36zm-340.53 112.39l176.25 0c15.48,0 33.79,12.57 40.83,28.09 7.04,15.52 0.13,28.09 -15.35,28.09l-176.25 0c-15.52,0 -33.79,-12.57 -40.83,-28.09 -7.04,-15.53 -0.17,-28.09 15.35,-28.09zm-101.85 8.94c5.7,-10.4 24.59,-10.54 39.76,0 7.57,5.2 13.97,12.5 17.35,19.95 3.32,7.31 3.53,14.6 0.68,19.81 -2.82,5.21 -8.75,8.28 -16.05,8.28 -7.44,0 -15.99,-3.07 -23.71,-8.28 -7.54,-5.2 -13.81,-12.5 -17.13,-19.81 -3.39,-7.46 -3.73,-14.75 -0.91,-19.95zm923.54 1621.18c-46.36,0 -101.18,-37.73 -122.2,-84.08 -21.02,-46.36 -0.42,-84.08 45.94,-84.08 46.36,0 101.17,37.72 122.2,84.08 21.02,46.35 0.41,84.08 -45.94,84.08zm307.44 -225.31l-800.74 0 -566.98 -1250.28 800.74 0 566.98 1250.28z"/>
    <polygon class="fil2" points="1132.92,266.93 332.17,266.93 899.15,1517.2 1699.9,1517.2 "/>
    <path class="fil2" d="M526.71 161.09c2.85,-5.21 2.63,-12.5 -0.68,-19.81 -3.38,-7.46 -9.78,-14.75 -17.35,-19.95 -15.18,-10.54 -34.07,-10.4 -39.76,0 -2.83,5.2 -2.49,12.5 0.91,19.95 3.32,7.31 9.58,14.61 17.13,19.81 7.72,5.21 16.27,8.28 23.71,8.28 7.3,0 13.23,-3.07 16.05,-8.28z"/>
    <path class="fil2" d="M555.42 140.48c7.04,15.52 25.31,28.09 40.83,28.09l176.25 0c15.48,0 22.39,-12.57 15.35,-28.09 -7.04,-15.53 -25.35,-28.09 -40.83,-28.09l-176.25 0c-15.53,0 -22.39,12.57 -15.35,28.09z"/>
    <path class="fil2" d="M1438.4 1658.43c-21.02,-46.36 -75.84,-84.08 -122.2,-84.08 -46.36,0 -66.96,37.72 -45.94,84.08 21.02,46.35 75.84,84.08 122.2,84.08 46.35,0 66.96,-37.73 45.94,-84.08z"/>
   </g>
  </g>
 </g>
</svg>
