<?xml version="1.0" encoding="UTF-8"?>
<!DOCTYPE svg PUBLIC "-//W3C//DTD SVG 1.1//EN" "http://www.w3.org/Graphics/SVG/1.1/DTD/svg11.dtd">
<!-- Creator: CorelDRAW 2020 (64-Bit) -->
<svg xmlns="http://www.w3.org/2000/svg" xml:space="preserve" width="281.53mm" height="155.483mm" version="1.1" style="shape-rendering:geometricPrecision; text-rendering:geometricPrecision; image-rendering:optimizeQuality; fill-rule:evenodd; clip-rule:evenodd"
viewBox="0 0 8088.65 4467.2"
 xmlns:xlink="http://www.w3.org/1999/xlink"
 xmlns:xodm="http://www.corel.com/coreldraw/odm/2003">
 <defs>
  <style type="text/css">
   <![CDATA[
    .fil2 {fill:white}
    .fil1 {fill:#E4B74B;fill-rule:nonzero}
    .fil0 {fill:#E4B74B;fill-rule:nonzero;fill-opacity:0.101961}
   ]]>
  </style>
 </defs>
 <g id="Слой_x0020_1">
  <metadata id="CorelCorpID_0Corel-Layer"/>
  <g id="_333957978848">
   <g>
    <path class="fil0" d="M7465.7 3948.71l-278.63 0 -1758.75 -3124.18c-119.89,-212.97 -381.3,-364.03 -594.22,-364.03l-4600.82 0c-213.07,0 -298.57,151.01 -178.65,364.03l1758.72 3124.13 -284.43 -0c-26.02,0 -46.9,-2.45 -32.25,23.58l24.71 43.9c133.03,236.32 444.47,451.06 680.69,451.06l5174.14 0c236.36,0 311.72,-214.75 178.69,-451.06l-24.71 -43.9c-14.58,-25.98 -38.46,-23.53 -64.48,-23.53zm-4916.97 -3343.34c14.98,-35.37 78.09,-35.37 132.89,0 27.67,17.4 51.4,41.93 65.22,66.47 14.06,24.97 17.68,49.03 9.87,66.9 -7.67,17.45 -26.13,27.32 -51.05,27.32 -24.92,0 -54.58,-9.87 -81.85,-27.32 -28.06,-17.92 -51.48,-41.98 -65.51,-66.9 -14.04,-25.02 -17.71,-49.08 -9.57,-66.47zm4249.28 3154.76l-4808 0 -1618.68 -2875.36 4808 0 1618.68 2875.36z"/>
   </g>
   <g>
    <path class="fil1" d="M7934.13 3488.21l-278.63 0 -1758.75 -3124.18c-119.89,-212.97 -381.3,-364.03 -594.22,-364.03l-4600.82 0c-213.07,0 -298.57,151.01 -178.65,364.03l1758.72 3124.13 -284.43 -0c-26.02,0 -46.9,-2.45 -32.25,23.58l24.71 43.9c133.03,236.32 444.47,451.06 680.69,451.06l5174.14 0c236.36,0 311.72,-214.75 178.69,-451.06l-24.71 -43.9c-14.58,-25.98 -38.46,-23.53 -64.48,-23.53zm-4916.97 -3343.34c14.98,-35.37 78.09,-35.37 132.89,0 27.67,17.4 51.4,41.93 65.22,66.47 14.06,24.97 17.68,49.03 9.87,66.9 -7.67,17.45 -26.13,27.32 -51.05,27.32 -24.92,0 -54.58,-9.87 -81.85,-27.32 -28.06,-17.92 -51.48,-41.98 -65.51,-66.9 -14.04,-25.02 -17.71,-49.08 -9.57,-66.47zm4249.28 3154.76l-4808 0 -1618.68 -2875.36 4808 0 1618.68 2875.36z"/>
    <polygon class="fil2" points="2458.44,3299.63 7266.44,3299.63 5647.77,424.27 839.77,424.27 "/>
    <path class="fil2" d="M3174.09 305.57c24.92,0 43.38,-9.87 51.05,-27.32 7.81,-17.88 4.19,-41.94 -9.87,-66.9 -13.81,-24.54 -37.55,-49.08 -65.22,-66.47 -54.8,-35.37 -117.91,-35.37 -132.89,0 -8.13,17.4 -4.46,41.46 9.58,66.47 14.03,24.92 37.45,48.98 65.51,66.9 27.27,17.45 56.93,27.32 81.85,27.32z"/>
   </g>
  </g>
 </g>
</svg>
