<svg xmlns="http://www.w3.org/2000/svg" width="130" height="72" viewBox="0 0 130 72">
    <g fill="none" fill-rule="evenodd">
        <text fill="#FFF" font-family="Montserrat-Bold, Montserrat" font-size="24" font-weight="bold">
            <tspan x="0" y="66">COMPARE</tspan>
        </text>
        <path fill="#262F63" fill-rule="nonzero" d="M.525 25.615l21.13 12.2c1.562.916 3.498.916 5.06 0l21-12.11c.33-.186.535-.536.535-.915 0-.38-.205-.73-.535-.915l-21.13-12.2c-1.567-.9-3.493-.9-5.06 0l-21 12.11C.2 23.975 0 24.323 0 24.7c0 .376.2.725.525.915z" opacity=".6"/>
        <path fill="#E4824B" d="M.525 19.615l21.13 12.2c1.562.916 3.498.916 5.06 0l21-12.11c.33-.186.535-.536.535-.915 0-.38-.205-.73-.535-.915l-21.13-12.2c-1.567-.9-3.493-.9-5.06 0l-21 12.11C.2 17.975 0 18.323 0 18.7c0 .376.2.725.525.915z"/>
        <path fill="#E4B74B" d="M.525 14.615l21.13 12.2c1.562.916 3.498.916 5.06 0l21-12.11c.33-.186.535-.536.535-.915 0-.38-.205-.73-.535-.915L26.585.675c-1.567-.9-3.493-.9-5.06 0l-21 12.11C.2 12.975 0 13.323 0 13.7c0 .376.2.725.525.915z"/>
        <path fill="#FFF" fill-rule="nonzero" d="M.272 7.44l10.948 6.21c.81.467 1.813.467 2.622 0l10.88-6.164c.172-.095.278-.273.278-.466s-.106-.371-.277-.466L13.775.344c-.812-.459-1.81-.459-2.622 0L.272 6.508C.104 6.605 0 6.782 0 6.974s.104.369.272.466z"/>
    </g>
</svg>
