<svg xmlns="http://www.w3.org/2000/svg" width="30" height="25" viewBox="0 0 30 25">
    <g fill="none" fill-rule="evenodd">
        <path fill="#E4B74B" d="M18.728 6.153c-.346-.591-1.314-1.07-2.16-1.07H1.04c-.847 0-1.253.479-.906 1.07L10.44 23.739c.346.591 1.314 1.07 2.16 1.07h15.527c.847 0 1.253-.479.906-1.07L18.728 6.153zm5.871 15.58h-4.025l-1.058-1.805h4.025l1.058 1.805zm-2.116-3.61h-4.025l-1.019-1.74h4.026l1.018 1.74zm-1.998-3.41H8.409L6.802 11.97h12.076l1.607 2.742zm-2.547-4.347H5.862L4.255 7.624h12.076l1.607 2.742z" opacity=".1"/>
        <path fill="#FFF" d="M18.728 1.153c-.346-.591-1.314-1.07-2.16-1.07H1.04c-.847 0-1.253.479-.906 1.07L10.44 18.739c.346.591 1.314 1.07 2.16 1.07h15.527c.847 0 1.253-.479.906-1.07L18.728 1.153z"/>
        <path fill="#E4B74B" d="M18.728 1.153c-.346-.591-1.314-1.07-2.16-1.07H1.04c-.847 0-1.253.479-.906 1.07L10.44 18.739c.346.591 1.314 1.07 2.16 1.07h15.527c.847 0 1.253-.479.906-1.07L18.728 1.153zm5.871 15.58h-4.025l-1.058-1.805h4.025l1.058 1.805zm-2.116-3.61h-4.025l-1.019-1.74h4.026l1.018 1.74zm-1.998-3.41H8.409L6.802 6.97h12.076l1.607 2.742zm-2.547-4.347H5.862L4.255 2.624h12.076l1.607 2.742z"/>
    </g>
</svg>
