<svg xmlns="http://www.w3.org/2000/svg" width="22" height="17" viewBox="0 0 22 17">
    <g fill="#B6C2CE" fill-rule="evenodd">
        <path d="M15.56 4.595h-4.263l-.296-.524c-.164-.29-.634-.524-1.05-.524-.415 0-.619.234-.455.524l.296.524H6.281l-.296-.524c-.164-.29-.634-.524-1.05-.524-.415 0-.619.234-.455.524l.296.524H.513c-.416 0-.62.234-.457.524l1.186 2.096L2.625 9.66l1.383 2.445L5.39 14.55c.163.29.633.524 1.048.524h15.049c.415 0 .62-.235.456-.524l-1.383-2.445-1.383-2.445-1.383-2.445-1.186-2.096c-.163-.29-.633-.524-1.048-.524zM6.6 14.026l-.791-1.397H9.32l.79 1.397H6.6zm-1.384-2.445l-.79-1.397h3.511l.79 1.397h-3.51zM3.833 9.136l-.79-1.398h3.511l.79 1.398h-3.51zm11.293 4.89h-3.51l-.791-1.397h3.511l.79 1.397zm-1.383-2.445h-3.51l-.791-1.397h3.511l.79 1.397zM12.36 9.136H8.85l-.791-1.398h3.511l.79 1.398zm7.782 4.89h-3.51l-.791-1.397h3.511l.79 1.397zm-1.383-2.445h-3.51l-.791-1.397h3.511l.79 1.397zm-1.382-2.445h-3.512l-.79-1.398h3.511l.79 1.398z" opacity=".1"/>
        <path d="M15.56 1.048h-4.263l-.296-.524C10.837.234 10.367 0 9.95 0c-.415 0-.619.235-.455.524l.296.524H6.281L5.985.524C5.82.234 5.35 0 4.935 0c-.415 0-.619.235-.455.524l.296.524H.513c-.416 0-.62.235-.457.524l1.186 2.096 1.383 2.445 1.383 2.445 1.383 2.445c.163.29.633.524 1.048.524h15.049c.415 0 .62-.235.456-.524L20.56 8.558l-1.383-2.445-1.383-2.445-1.186-2.096c-.163-.29-.633-.524-1.048-.524zM6.6 10.479l-.791-1.397H9.32l.79 1.397H6.6zM5.215 8.034l-.79-1.397h3.511l.79 1.397h-3.51zM3.833 5.59l-.79-1.397h3.511l.79 1.397h-3.51zm11.293 4.89h-3.51l-.791-1.397h3.511l.79 1.397zm-1.383-2.445h-3.51l-.791-1.397h3.511l.79 1.397zM12.36 5.59H8.85l-.791-1.397h3.511l.79 1.397zm7.782 4.89h-3.51l-.791-1.397h3.511l.79 1.397zM18.76 8.034h-3.51l-.791-1.397h3.511l.79 1.397zM17.377 5.59h-3.512l-.79-1.397h3.511l.79 1.397z"/>
    </g>
</svg>
