<svg xmlns="http://www.w3.org/2000/svg" width="50" height="26" viewBox="0 0 50 26">
    <g fill="none" fill-rule="evenodd">
        <path fill="#E4824B" d="M14.23 26c-2.768 0-5.385-1.3-7.132-3.535l-.118-.154L0 13l6.98-9.31C8.688 1.411 11.281.06 14.041.001L14.23 0h21.54c2.83 0 5.504 1.36 7.25 3.69L50 13l-6.98 9.31C41.274 24.64 38.6 26 35.77 26H14.23z"/>
        <g fill="#FFF" fill-rule="nonzero">
            <path d="M12.376 1.597H3.194V.399c0-.161-.097-.307-.247-.369-.15-.061-.32-.027-.435.086L.117 2.512c-.156.156-.156.409 0 .564l2.395 2.396c.115.114.286.148.435.087.15-.062.247-.208.247-.37V3.993h9.182c.22 0 .4-.179.4-.4V1.997c0-.221-.18-.4-.4-.4zM12.659 8.9l-2.396-2.396c-.114-.114-.285-.148-.435-.086-.15.062-.247.207-.247.369v1.197H.4c-.22 0-.399.18-.399.4V9.98c0 .22.18.4.4.4H9.58v1.197c0 .162.098.308.247.37.15.061.321.027.435-.087l2.396-2.395c.155-.156.155-.41 0-.565z" transform="translate(18 7)"/>
        </g>
    </g>
</svg>
