<svg width="58" height="30" viewBox="0 0 58 30" fill="none" xmlns="http://www.w3.org/2000/svg">
<path fill-rule="evenodd" clip-rule="evenodd" d="M16.419 30C13.226 30 10.206 28.5 8.19 25.92L8.054 25.743L0 15L8.054 4.257C10.024 1.629 13.017 0.07 16.201 0.002L16.42 0H41.275C44.54 0 47.625 1.57 49.639 4.257L57.692 15L49.638 25.743C47.623 28.43 44.539 30 41.274 30H16.419Z" fill="#D66E34"/>
<path d="M35.7 9.89699H24.794V8.47399C24.794 8.28299 24.678 8.10899 24.501 8.03599C24.323 7.96299 24.121 8.00399 23.984 8.13799L21.139 10.983C20.954 11.168 20.954 11.469 21.139 11.654L23.984 14.499C24.12 14.635 24.324 14.676 24.501 14.602C24.678 14.529 24.794 14.356 24.794 14.164V12.742H35.7C35.962 12.742 36.174 12.529 36.174 12.268V10.37C36.174 10.107 35.962 9.89599 35.7 9.89599V9.89699ZM36.036 18.571L33.19 15.725C33.054 15.59 32.85 15.549 32.673 15.623C32.495 15.697 32.38 15.87 32.38 16.061V17.484H21.474C21.213 17.484 21 17.696 21 17.958V19.855C21 20.116 21.213 20.329 21.474 20.329H32.381V21.751C32.381 21.943 32.496 22.116 32.674 22.189C32.851 22.263 33.055 22.223 33.191 22.087L36.036 19.242C36.221 19.057 36.221 18.756 36.036 18.572V18.571Z" fill="white"/>
</svg>
