<svg xmlns="http://www.w3.org/2000/svg" width="22" height="26" viewBox="0 0 22 26">
    <path fill="#E4824B" fill-rule="evenodd" d="M16.51 19.866c.474 0 .86.385.86.86v4.257c0 .475-.386.86-.86.86H5.156c-.475 0-.86-.385-.86-.86v-4.257c0-.475.385-.86.86-.86zm-3.814-3.288c.23-.06.416.085.416.321v1.247c0 .237-.193.43-.43.43H8.984c-.236 0-.43-.193-.43-.43V16.9c0-.236.188-.38.416-.321 0 0 1.072.278 1.863.278.791 0 1.863-.278 1.863-.278zM16.51 0c.475 0 .86.385.86.86v7.095c0 2.22-.66 4.242-1.86 5.692-1.207 1.46-2.867 2.263-4.676 2.263-1.808 0-3.469-.803-4.676-2.263-1.2-1.45-1.86-3.471-1.86-5.692V.86c0-.475.385-.86.86-.86zM3.351.975v1.72h-1.59v3.841c0 1.689.541 2.704 1.718 3.142.098.655.253 1.285.461 1.881-2.526-.408-3.9-2.155-3.9-5.023V1.835c0-.475.385-.86.86-.86h2.451zm17.415 0c.475 0 .86.385.86.86v4.701c0 2.868-1.373 4.615-3.9 5.023.208-.596.363-1.226.462-1.88 1.177-.439 1.718-1.454 1.718-3.143V2.695h-1.59V.975z"/>
</svg>
