<svg xmlns="http://www.w3.org/2000/svg" width="39" height="20" viewBox="0 0 39 20">
    <g fill="none" fill-rule="evenodd">
        <path fill="#B6C2CE" d="M10.946 20c-2.129 0-4.142-1-5.486-2.72l-.09-.118L0 10l5.37-7.162C6.683 1.086 8.678.047 10.8.002L10.947 0h17.07c2.177 0 4.233 1.046 5.576 2.838L38.962 10l-5.37 7.162C32.249 18.954 30.192 20 28.016 20h-17.07z"/>
        <path fill="#FFF" fill-rule="nonzero" d="M24.02 9.028h-7.063v-.921c0-.124-.075-.237-.19-.284-.115-.047-.246-.02-.335.067L14.59 9.732c-.12.12-.12.315 0 .434l1.842 1.843c.089.088.22.114.335.067.115-.047.19-.16.19-.284v-.921h7.063c.17 0 .307-.138.307-.307V9.335c0-.17-.137-.307-.307-.307z"/>
    </g>
</svg>
