<svg xmlns="http://www.w3.org/2000/svg" width="39" height="20" viewBox="0 0 39 20">
    <g fill="none" fill-rule="evenodd">
        <path fill="#E4B74B" d="M10.946 20c-2.129 0-4.142-1-5.486-2.72l-.09-.118L0 10l5.37-7.162C6.683 1.086 8.678.047 10.8.002L10.947 0h17.07c2.177 0 4.233 1.046 5.576 2.838L38.962 10l-5.37 7.162C32.249 18.954 30.192 20 28.016 20h-17.07z"/>
        <path fill="#FFF" fill-rule="nonzero" d="M24.237 9.433L22.395 7.59c-.088-.088-.22-.114-.335-.066-.115.048-.19.16-.19.283v.922h-7.063c-.17 0-.307.137-.307.307v1.228c0 .17.138.307.307.307h7.063v.921c0 .125.075.237.19.284.115.048.247.022.335-.066l1.842-1.843c.12-.12.12-.314 0-.434z"/>
    </g>
</svg>
