<svg xmlns="http://www.w3.org/2000/svg" width="78" height="40" viewBox="0 0 78 40">
    <g fill="none" fill-rule="evenodd">
        <path fill="#303974" d="M21.892 40c-4.258 0-8.284-2-10.972-5.439l-.18-.237L0 20 10.74 5.676C13.364 2.172 17.354.094 21.601.003l.29-.003h34.14c4.354 0 8.466 2.093 11.152 5.676L77.924 20l-10.74 14.324C64.498 37.907 60.386 40 56.032 40h-34.14z"/>
        <g fill="#FFF" fill-rule="nonzero">
            <path d="M19.04 2.457H4.914V.614c0-.248-.15-.473-.38-.567-.23-.095-.492-.042-.67.132L.18 3.864c-.24.24-.24.63 0 .869l3.685 3.685c.177.176.44.228.67.134.229-.095.379-.32.379-.568V6.142H19.04c.34 0 .614-.275.614-.614V3.07c0-.34-.275-.614-.614-.614zM19.475 13.693l-3.685-3.687c-.176-.175-.44-.228-.67-.132-.23.095-.38.319-.38.567v1.843H.615c-.339 0-.614.275-.614.614v2.457c0 .339.275.614.614.614h14.127v1.842c0 .248.15.473.38.568.229.096.493.043.669-.133l3.685-3.685c.24-.24.24-.629 0-.868z" transform="translate(29 11)"/>
        </g>
    </g>
</svg>
