<svg xmlns="http://www.w3.org/2000/svg" width="56" height="40" viewBox="0 0 56 40">
    <g fill="none" fill-rule="evenodd">
        <path fill="#E4B74B" d="M.6 24.703l24.148 13.943c1.786 1.047 3.998 1.047 5.783 0l24-13.84c.378-.213.612-.613.612-1.046 0-.434-.234-.833-.612-1.046L30.383 8.771c-1.79-1.028-3.993-1.028-5.783 0l-24 13.84c-.372.218-.6.616-.6 1.046 0 .43.228.828.6 1.046z" opacity=".1"/>
        <path fill="#E4B74B" d="M.6 16.703l24.148 13.943c1.786 1.047 3.998 1.047 5.783 0l24-13.84c.378-.213.612-.613.612-1.046 0-.434-.234-.833-.612-1.046L30.383.771c-1.79-1.028-3.993-1.028-5.783 0l-24 13.84c-.372.218-.6.616-.6 1.046 0 .43.228.828.6 1.046z"/>
        <path fill="#FFF" fill-rule="nonzero" d="M.31 8.503L12.824 15.6c.925.533 2.071.533 2.996 0l12.436-7.045c.195-.108.316-.312.316-.532 0-.221-.12-.425-.316-.533L15.742.393c-.927-.524-2.068-.524-2.996 0L.311 7.438C.118 7.548 0 7.75 0 7.97c0 .22.118.422.31.533z"/>
    </g>
</svg>
