<svg xmlns="http://www.w3.org/2000/svg" width="20" height="18" viewBox="0 0 20 18">
    <g fill="#B6C2CE" fill-rule="evenodd">
        <path d="M0 6.25v10c0 .69.56 1.25 1.25 1.25H5V5H1.25C.56 5 0 5.56 0 6.25zM17.692 6.25h-3.693c-.323 0-.485-.216-.539-.308-.054-.093-.164-.339-.008-.62l1.302-2.345c.286-.513.315-1.117.081-1.656-.234-.54-.695-.93-1.266-1.073l-.918-.23c-.223-.055-.46.016-.615.189L7.05 5.744c-.517.575-.801 1.318-.801 2.09v6.54c0 1.724 1.402 3.126 3.125 3.126h6.218c1.403 0 2.643-.946 3.014-2.3l1.334-6.123c.039-.17.059-.344.059-.519 0-1.273-1.036-2.308-2.308-2.308z" transform="matrix(1 0 0 -1 0 18)"/>
    </g>
</svg>
