<svg xmlns="http://www.w3.org/2000/svg" width="16" height="15" viewBox="0 0 16 15">
    <g opacity=".5">
        <path d="M7.991 10.296c-.447 0-.821.374-.821.821 0 .447.374.822.821.822.43 0 .821-.375.802-.802.02-.47-.352-.841-.802-.841z"/>
        <path d="M15.593 13.207c.516-.89.52-1.952.007-2.839l-5.145-8.91C9.945.561 9.025.03 7.995.03c-1.032 0-1.952.536-2.462 1.426l-5.151 8.92c-.513.897-.51 1.964.01 2.855.512.88 1.429 1.41 2.454 1.41h10.277c1.028 0 1.951-.536 2.47-1.433zm-1.117-.644c-.285.493-.791.785-1.356.785H2.843c-.559 0-1.061-.286-1.34-.769-.283-.49-.287-1.074-.004-1.567l5.152-8.916c.279-.49.778-.78 1.343-.78.562 0 1.065.293 1.344.783l5.148 8.916c.276.48.273 1.058-.01 1.548z"/>
        <path d="M7.787 4.53c-.39.112-.634.467-.634.897.02.26.036.522.056.782l.168 2.947c.02.335.279.578.614.578.335 0 .598-.26.614-.598 0-.204 0-.39.02-.598.036-.634.076-1.268.112-1.902.02-.41.056-.821.075-1.232 0-.148-.02-.28-.075-.41-.168-.369-.559-.556-.95-.464z"/>
    </g>
</svg>
