<svg xmlns="http://www.w3.org/2000/svg" width="22" height="10" viewBox="0 0 22 10">
    <g fill="#B6C2CE" fill-rule="evenodd">
        <path d="M8.475 2C14.36 2 21.3 5.553 21.591 5.704c.324.168.485.424.374.592-.1.151-2.556 3.704-8.44 3.704C7.64 10 .7 6.447.409 6.296c-.324-.168-.485-.424-.374-.592C.135 5.553 2.591 2 8.475 2zm.561.889C6.562 2.889 5.43 4.285 6.512 6c1.083 1.715 3.977 3.111 6.452 3.111 2.474 0 3.606-1.396 2.524-3.111-1.083-1.715-3.977-3.111-6.452-3.111zm.561.889c.524 0 1.072.096 1.607.25-.334.243-.406.636-.124 1.083.552.875 2.198 1.552 3.307 1.264.402 1.046-.402 1.847-1.984 1.847-1.768 0-3.835-.997-4.608-2.222-.774-1.225.035-2.222 1.802-2.222z" opacity=".1"/>
        <path d="M8.475 0C14.36 0 21.3 3.553 21.591 3.704c.324.168.485.424.374.592-.1.151-2.556 3.704-8.44 3.704C7.64 8 .7 4.447.409 4.296c-.324-.168-.485-.424-.374-.592C.135 3.553 2.591 0 8.475 0zm.561.889C6.562.889 5.43 2.285 6.512 4c1.083 1.715 3.977 3.111 6.452 3.111 2.474 0 3.606-1.396 2.524-3.111C14.405 2.285 11.51.889 9.036.889zm.561.889c.524 0 1.072.096 1.607.25-.334.243-.406.636-.124 1.083.552.875 2.198 1.552 3.307 1.264.402 1.046-.402 1.847-1.984 1.847-1.768 0-3.835-.997-4.608-2.222-.774-1.225.035-2.222 1.802-2.222z"/>
    </g>
</svg>
