<svg xmlns="http://www.w3.org/2000/svg" width="58" height="30" viewBox="0 0 58 30">
    <g fill="none" fill-rule="evenodd">
        <path fill="#C8961F" d="M16.419 30c-3.193 0-6.213-1.5-8.229-4.08l-.136-.177L0 15 8.054 4.257C10.024 1.629 13.017.07 16.201.002L16.42 0h24.855c3.265 0 6.35 1.57 8.364 4.257L57.692 15l-8.054 10.743C47.623 28.43 44.539 30 41.274 30H16.419z"/>
        <g fill="#FFF" fill-rule="nonzero">
            <path d="M14.7 1.897H3.794V.474c0-.191-.116-.365-.293-.438-.178-.073-.38-.032-.517.102L.139 2.983c-.185.185-.185.486 0 .671l2.845 2.845c.136.136.34.177.517.103.177-.073.293-.246.293-.438V4.742H14.7c.262 0 .474-.213.474-.474V2.37c0-.263-.212-.474-.474-.474zM15.036 10.571L12.19 7.725c-.136-.135-.34-.176-.517-.102-.178.074-.293.247-.293.438v1.423H.474c-.261 0-.474.212-.474.474v1.897c0 .261.213.474.474.474h10.907v1.422c0 .192.115.365.293.438.177.074.381.034.517-.102l2.845-2.845c.185-.185.185-.486 0-.67z" transform="translate(21 8)"/>
        </g>
    </g>
</svg>
