<svg xmlns="http://www.w3.org/2000/svg" width="39" height="20" viewBox="0 0 39 20">
    <g fill="none" fill-rule="evenodd">
        <path fill="#B6C2CE" d="M10.946 20c-2.129 0-4.142-1-5.486-2.72l-.09-.118L0 10l5.37-7.162C6.683 1.086 8.678.047 10.8.002L10.947 0h17.07c2.177 0 4.233 1.046 5.576 2.838L38.962 10l-5.37 7.162C32.249 18.954 30.192 20 28.016 20h-17.07z"/>
        <g fill="#FFF" fill-rule="nonzero">
            <path d="M9.52 1.228H2.457V.307c0-.124-.075-.236-.19-.284-.115-.047-.246-.02-.335.067L.09 1.932c-.12.12-.12.315 0 .434L1.932 4.21c.089.088.22.114.335.067.115-.047.19-.16.19-.284v-.921H9.52c.17 0 .307-.138.307-.307V1.535c0-.17-.137-.307-.307-.307zM9.737 6.846L7.895 5.003c-.088-.088-.22-.114-.335-.066-.115.048-.19.16-.19.284v.92H.307c-.17 0-.307.138-.307.308v1.228c0 .17.138.307.307.307H7.37v.922c0 .124.075.236.19.283.115.048.247.022.335-.066L9.737 7.28c.12-.12.12-.314 0-.434z" transform="translate(14.5 5.5)"/>
        </g>
    </g>
</svg>
