<svg xmlns="http://www.w3.org/2000/svg" width="18" height="19" viewBox="0 0 18 19">
    <path fill="#FFF" d="M17.37 14.192l-2.964-2.964c.539-1.078.898-2.335.898-3.593C15.304 3.413 11.89 0 7.669 0 3.447 0 .034 3.413.034 7.635c0 4.222 3.413 7.635 7.635 7.635 1.257 0 2.515-.36 3.593-.898l2.964 2.964c.898.898 2.246.898 3.144 0 .808-.898.808-2.245 0-3.144zm-9.701-.718c-3.234 0-5.839-2.605-5.839-5.839 0-3.234 2.605-5.839 5.839-5.839 3.233 0 5.838 2.605 5.838 5.84 0 3.233-2.605 5.838-5.838 5.838z"/>
</svg>
