<svg xmlns="http://www.w3.org/2000/svg" width="21" height="23" viewBox="0 0 21 23">
    <g fill="#E4B74B" fill-rule="evenodd">
        <path d="M20.094 10.83c-.07-.213-.254-.369-.476-.401l-6.238-.907-2.79-5.652c-.1-.202-.304-.329-.528-.329-.225 0-.43.127-.53.329l-2.79 5.652-6.237.907c-.222.032-.407.188-.476.401-.07.214-.012.448.15.605l4.513 4.4-1.065 6.213c-.038.22.052.444.234.576.103.075.224.113.347.113.093 0 .188-.022.274-.068l5.58-2.933 5.579 2.933c.199.105.44.087.62-.045.182-.132.273-.355.235-.576l-1.065-6.213 4.514-4.4c.16-.157.219-.391.15-.605z" opacity=".1"/>
        <path d="M20.094 7.32c-.07-.213-.254-.369-.476-.4l-6.238-.907L10.59.36c-.1-.201-.304-.329-.528-.329-.225 0-.43.128-.53.329l-2.79 5.653-6.237.906c-.222.032-.407.188-.476.401-.07.214-.012.448.15.605l4.513 4.4-1.065 6.213c-.038.221.052.445.234.577.103.074.224.112.347.112.093 0 .188-.022.274-.068l5.58-2.933 5.579 2.933c.199.105.44.087.62-.044.182-.132.273-.356.235-.577l-1.065-6.213 4.514-4.4c.16-.157.219-.391.15-.605z"/>
    </g>
</svg>
