<svg xmlns="http://www.w3.org/2000/svg" width="127" height="26" viewBox="0 0 127 26">
    <g fill="none" fill-rule="evenodd">
        <text fill="#FFF" font-family="Montserrat-Bold, Montserrat" font-size="16" font-weight="bold">
            <tspan x="39.333" y="15.667">COMPARE</tspan>
        </text>
        <path fill="#262F63" fill-rule="nonzero" d="M.35 17.077l14.087 8.133c1.041.61 2.331.61 3.373 0l14-8.073c.22-.124.357-.358.357-.61 0-.253-.137-.486-.357-.61L17.723 7.783c-1.044-.6-2.329-.6-3.373 0l-14 8.074c-.217.126-.35.359-.35.61 0 .25.133.483.35.61z" opacity=".6"/>
        <path fill="#E4824B" d="M.35 13.077l14.087 8.133c1.041.61 2.331.61 3.373 0l14-8.073c.22-.124.357-.358.357-.61 0-.253-.137-.486-.357-.61L17.723 3.783c-1.044-.6-2.329-.6-3.373 0l-14 8.074c-.217.126-.35.359-.35.61 0 .25.133.483.35.61z"/>
        <path fill="#E4B74B" d="M.35 9.743l14.087 8.134c1.041.61 2.331.61 3.373 0l14-8.074c.22-.124.357-.357.357-.61s-.137-.486-.357-.61L17.723.45c-1.044-.6-2.329-.6-3.373 0l-14 8.073c-.217.127-.35.36-.35.61 0 .251.133.483.35.61z"/>
        <path fill="#FFF" fill-rule="nonzero" d="M.181 4.96l7.3 4.14c.539.311 1.207.311 1.747 0l7.254-4.11c.114-.063.185-.181.185-.31s-.071-.248-.185-.31L9.183.228c-.541-.305-1.207-.305-1.748 0L.181 4.339C.07 4.403 0 4.52 0 4.649s.069.246.181.31z"/>
    </g>
</svg>
