<svg xmlns="http://www.w3.org/2000/svg" width="22" height="22" viewBox="0 0 22 22">
    <g fill="none">
        <circle cx="10.993" cy="10.993" r="10.992" fill="#D62427"/>
        <path fill="#DC3027" d="M0 10.993C0 4.92 4.922 0 10.992 0c6.072 0 6.072 21.985 0 21.985C4.922 21.985 0 17.064 0 10.993z"/>
        <g fill="#F8D12E">
            <path d="M2.21.938L2.723 2.517 4.384 2.517 3.04 3.493 3.554 5.072 2.21 4.096.867 5.072 1.38 3.493.037 2.517 1.697 2.517zM6.084.039L5.922.594 6.399.919 5.822.935 5.661 1.49 5.466.946 4.889.964 5.346.611 5.151.068 5.628.393zM6.084 5.001L5.922 5.555 6.399 5.88 5.822 5.897 5.661 6.451 5.466 5.908 4.889 5.926 5.346 5.572 5.151 5.029 5.628 5.354zM7.49 1.552L7.329 2.106 7.805 2.431 7.229 2.448 7.067 3.002 6.872 2.459 6.295 2.476 6.752 2.123 6.557 1.58 7.034 1.905zM7.49 3.575L7.329 4.129 7.805 4.454 7.229 4.471 7.067 5.025 6.872 4.482 6.295 4.499 6.752 4.146 6.557 3.603 7.034 3.928z" transform="translate(4.13 2.089)"/>
        </g>
    </g>
</svg>
