<svg xmlns="http://www.w3.org/2000/svg" width="22" height="22" viewBox="0 0 22 22">
    <g fill="none">
        <path fill="#E61E25" d="M14.657.628l-1.282 3.557c1.184 3.908 1.184 9.708 0 13.616l1.282 3.556c4.27-1.51 7.328-5.579 7.328-10.365 0-4.785-3.059-8.854-7.328-10.364z"/>
        <g fill="#E4E4E4">
            <path d="M3.704 4.185V.628C2.557.223 1.324 0 .039 0c1.695 0-.655 5.745 3.665 4.185zM.039 21.985c1.285 0 2.518-.222 3.665-.628v-3.556C-.573 17.374.039 21.985.039 21.985z" transform="translate(10.954)"/>
        </g>
        <path fill="#3757A6" d="M0 10.992c0 4.802 3.08 8.882 7.37 10.38V.614C3.08 2.111 0 6.191 0 10.992z"/>
        <path fill="#EF4F4E" d="M14.657 4.185v13.616c1.185-3.908 1.185-9.708 0-13.616z"/>
        <path fill="#F3F4F5" d="M14.657 17.8V4.186C13.91 1.715 12.687 0 10.993 0 9.723 0 8.505.218 7.37.614v20.758c1.134.396 2.352.613 3.622.613 1.695 0 2.916-1.714 3.664-4.184z"/>
    </g>
</svg>
