<svg xmlns="http://www.w3.org/2000/svg" width="22" height="22" viewBox="0 0 22 22">
    <g fill="none">
        <circle cx="10.993" cy="10.993" r="10.992" fill="#FFF"/>
        <path fill="#D32027" d="M21.357 7.327h-6.773c.294 2.349.296 4.936.006 7.287h6.781c.396-1.134.614-2.352.614-3.621 0-1.286-.223-2.52-.628-3.666z"/>
        <path fill="#0B0B0B" d="M14.584 7.327h6.773l-.004-.01C19.946 3.352 16.328.434 11.98.046c1.682.922 2.174 3.845 2.604 7.282z"/>
        <path fill="#F3C515" d="M11.98 21.94c4.356-.389 7.98-3.317 9.38-7.295.005-.01.008-.02.011-.03H14.59c-.426 3.456-.92 6.398-2.61 7.325z"/>
        <path fill="#DB2727" d="M0 10.993c0 1.269.218 2.487.614 3.621h14.541c.29-2.351.289-4.938-.005-7.287H.628C.223 8.474 0 9.707 0 10.993z"/>
        <path fill="#151515" d="M.631 7.318l-.003.01H15.15C14.72 3.89 13.662.967 11.98.044 11.654.016 11.325 0 10.992 0 6.21 0 2.144 3.054.632 7.318z"/>
        <path fill="#F8D12E" d="M15.155 14.614H.614l.01.031c1.506 4.275 5.579 7.34 10.368 7.34.333 0 .662-.016.988-.046 1.69-.926 2.749-3.868 3.175-7.325z"/>
    </g>
</svg>
