<svg xmlns="http://www.w3.org/2000/svg" width="22" height="22" viewBox="0 0 22 22">
    <g fill="none">
        <g fill="#FFF">
            <circle cx="10.993" cy="10.993" r="10.992"/>
            <circle cx="10.993" cy="10.993" r="10.992"/>
        </g>
        <path fill="#EFECEC" d="M21.357 7.327l-.004-.01C19.946 3.352 16.328.434 11.98.046c1.682.922 2.173 3.845 2.604 7.282.294 2.349.296 4.936.006 7.287-.427 3.457-.92 6.4-2.61 7.326 4.356-.389 7.98-3.317 9.38-7.295.005-.01.008-.02.011-.03.396-1.135.614-2.353.614-3.622 0-1.286-.223-2.52-.628-3.666z"/>
        <path fill="#F3F2F2" d="M15.15 7.327C14.72 3.89 13.662.967 11.98.045 11.654.016 11.325 0 10.992 0 6.21 0 2.144 3.054.632 7.318l-.004.01C.223 8.473 0 9.706 0 10.992c0 1.269.218 2.487.614 3.621l.01.031c1.506 4.275 5.579 7.34 10.368 7.34.333 0 .662-.016.988-.046 1.69-.926 2.749-3.869 3.175-7.325.29-2.351.289-4.938-.005-7.287z"/>
        <circle cx="10.993" cy="10.993" r="4.05" fill="#EC1C24"/>
    </g>
</svg>
