<svg xmlns="http://www.w3.org/2000/svg" width="22" height="22" viewBox="0 0 22 22">
    <g fill="none">
        <path fill="#E4E4E4" d="M15.073 10.993h6.912C21.985 4.92 17.064 0 10.992 0c3.036 0 4.081 5.497 4.08 10.993z"/>
        <path fill="#F3F4F5" d="M0 10.993h15.545C15.545 5.497 14.028 0 10.992 0 4.922 0 0 4.921 0 10.993z"/>
        <path fill="#D84141" d="M14.842 10.993c0 5.496-.814 10.992-3.85 10.992 6.072 0 10.993-4.921 10.993-10.992h-7.143z"/>
        <path fill="#DC4D4E" d="M15.545 10.993H0c0 6.07 4.922 10.992 10.992 10.992 3.036 0 4.553-5.496 4.553-10.992z"/>
    </g>
</svg>
