<svg xmlns="http://www.w3.org/2000/svg" width="23" height="23" viewBox="0 0 23 23">
    <g fill="none">
        <g fill="#29337A">
            <path d="M1.611 4.346C.902 5.376.364 6.53.037 7.772h5L1.611 4.346zM7.59.022C6.322.392 5.15.98 4.116 1.747L7.589 5.22V.022zM4.375 19.586c.969.678 2.051 1.202 3.214 1.541v-4.755l-3.214 3.214zM.163 13.82c.363 1.178.92 2.27 1.632 3.242l3.241-3.241H.163z" transform="translate(.325 .464)"/>
        </g>
        <g fill="#FFF">
            <path d="M1.978 4.323c-.061.084-.122.17-.181.255l3.426 3.426h-5c-.082.309-.148.623-.202.942H6.6L1.978 4.323zM4.306 19.636c.083.063.17.122.255.182l3.214-3.214v4.755c.309.09.622.168.941.23v-6.363l-4.41 4.41zM.104 13.111c.069.32.15.633.244.942h4.874l-3.241 3.24c.352.482.743.934 1.168 1.352l5.534-5.534H.104zM7.775.254v5.198L4.302 1.98c-.478.356-.926.75-1.34 1.179l5.754 5.754V.023c-.319.064-.632.142-.941.231z" transform="translate(.14 .232)"/>
        </g>
        <g fill="#D32030">
            <path d="M.116 6.09L.045 6.162.116 6.162zM.986 5.22L1.057 5.22 1.057 5.149zM5.254 1.017L5.186 1.017 5.186 1.086zM.148.113L.078.043.078.113zM1.02.984L1.02 1.054 1.09 1.054z" transform="translate(7.844 8.169)"/>
        </g>
        <g fill="#252F6C">
            <path d="M.038 18.74v2.464c1.178-.33 2.277-.85 3.259-1.527l-2.67-2.67c-.213.75-.291 1.138-.589 1.733zM.641 4.663l2.915-2.915C2.509.982 1.32.398.038.038v2.531c.343.687.372 1.208.603 2.094zM5.896 17.172c.734-.987 1.306-2.102 1.678-3.305H2.59l3.305 3.305zM7.7 7.819c-.334-1.268-.89-2.445-1.62-3.49l-3.49 3.49H7.7z" transform="translate(13.924 .418)"/>
        </g>
        <g fill="#E7E7E7">
            <path d="M2.211 13.297l.755.756 3.616 3.616c.082-.103.164-.206.242-.31L3.52 14.052h4.983c.095-.308.176-.623.244-.942H2.282c-.01.134-.058.054-.071.186zM1.455 5.4l3.277-3.277c-.082-.064-.164-.127-.248-.189L1.57 4.85c.03.115-.142.433-.114.551zM.967 2.552V.223C.658.137.344.063.025.004V1.14c.35.38.664.857.942 1.412zM2.137 8.946H8.83c-.055-.32-.121-.633-.202-.942h-5.11l3.49-3.49c-.343-.49-.724-.95-1.14-1.378l-3.932 3.93c.106.714.153 1.128.2 1.88zM1.396 17.034l2.83 2.83c.47-.325.913-.686 1.327-1.077L1.83 15.066c-.118.688-.26 1.353-.435 1.968zM.025 20.343v1.266c.32-.06.633-.133.942-.22v-2.463c-.278.556-.592 1.038-.942 1.417z" transform="translate(12.996 .232)"/>
        </g>
        <path fill="#D71F28" d="M14.932 7.299l3.93-3.931c-.353-.363-.733-.702-1.134-1.013l-3.089 3.089c.137.574.2 1.23.293 1.855z"/>
        <g fill="#D32030">
            <path d="M0 .095c.184-.02.367-.03.55-.03-.184 0-.367.01-.55.03zM.55 22.066c-.183 0-.366-.01-.549-.03.182.02.365.03.548.03zM.55 22.032c.693 0 1.37-.068 2.028-.19v-1.267c-.577.626-1.253 1.457-2.029 1.457z" transform="translate(10.443)"/>
        </g>
        <g fill="#D71F28">
            <path d="M7.02.034H.413C.5 1.413.49 2.831.382 4.2h6.554c.158-.744.243-1.514.243-2.304 0-.635-.056-1.256-.16-1.862zM.4 4.386c-.06.65-.273 1.156-.379 1.768l3.721 3.721c.368-.348.713-.722 1.03-1.118L1.156 5.141l-.755-.755z" transform="translate(14.806 9.143)"/>
        </g>
        <path fill="#D32030" d="M13.021 1.454V.236c-.658-.122-1.335-.19-2.029-.19.776 0 1.452.782 2.03 1.408z"/>
        <g fill="#29337A">
            <path d="M.038 17.22c.298-.596.553-1.282.766-2.031l-.766-.766v2.797zM.9 2.41C.667 1.522.38.717.037.03V3.27L.9 2.41z" transform="translate(13.924 2.414)"/>
        </g>
        <g fill="#FFF">
            <path d="M2.424 12.722c.013-.133.024-.266.035-.4h-.434l.4.4zM.967 4.662V1.424C.689.868.375.39.025.01v6.03l1.89-1.89c-.028-.119-.058-.235-.087-.35l-.861.861zM.057 8.157H2.49c-.047-.752-.123-1.491-.229-2.204L.057 8.157zM.025 20.024c.35-.38.664-.856.942-1.412v-2.797l.766.766c.175-.616.323-1.273.442-1.961l-2.15-2.15v7.554z" transform="translate(12.996 1.021)"/>
        </g>
        <path fill="#E51D35" d="M13.021 21.045v-7.553l2.15 2.149c.105-.613.188-1.249.249-1.898l-.4-.4h.434c.109-1.369.12-2.787.032-4.165h-2.433l2.203-2.204c-.092-.625-.207-1.229-.345-1.803l-1.89 1.891v-6.03c-.577-.625-1.253-.986-2.029-.986-.182 0-.365.005-.548.014-.54.027-1.071.094-1.589.196v8.89L3.101 3.39c-.354.365-.683.753-.984 1.164L5.8 8.236l.941.942H.16C.057 9.783 0 10.404 0 11.039c0 .79.085 1.56.244 2.304h8.578l-5.534 5.534c.363.356.748.688 1.157.991l4.41-4.41v6.364c.518.102 1.048.169 1.59.196.182.009.364.014.547.014.776 0 1.452-.36 2.03-.987z"/>
    </g>
</svg>
