<svg xmlns="http://www.w3.org/2000/svg" width="22" height="23" viewBox="0 0 22 23">
    <g fill="none">
        <g fill="#C42126">
            <path d="M.689 22.031c3.517 0 6.645-1.653 8.657-4.223h-5.79C2.81 20.299 2.393 22.031.69 22.031zM.067 22.04l-.013-.001h.013zM3.557 4.27h5.79C7.333 1.7 4.205.046.688.046c1.703 0 2.12 1.732 2.868 4.224zM.054.093h.013-.013z" transform="translate(10.304)"/>
        </g>
        <path fill="#FFC40C" d="M19.65 4.27h-5.79c1.169 3.894 1.169 9.644 0 13.538h5.79c1.461-1.866 2.335-4.215 2.335-6.77 0-2.553-.874-4.902-2.335-6.768z"/>
        <g fill="#C42126">
            <path d="M.689 22.069c-.22 0-.436-.014-.652-.04.219.025.436.04.652.04zM.037.104C.253.076.47.062.689.062.473.062.256.077.037.104z" transform="translate(10.304)"/>
        </g>
        <g fill="#D32030">
            <path d="M12.348 17.762H.014c1.886 2.408 4.752 4.012 8 4.204h.006c.216.012.433.019.652.019 1.703 0 2.929-1.732 3.676-4.223zM.014 4.223h12.334C11.601 1.732 10.375 0 8.672 0c-.219 0-.436.006-.652.02h-.006C4.766.21 1.9 1.815.014 4.223z" transform="translate(2.32 .046)"/>
        </g>
        <path fill="#FFD034" d="M0 11.039c0 2.554.874 4.903 2.335 6.769h12.334c1.169-3.894 1.169-9.644 0-13.538H2.335C.874 6.136 0 8.485 0 11.039z"/>
    </g>
</svg>
