<?xml version="1.0" encoding="UTF-8"?>
<svg xmlns="http://www.w3.org/2000/svg" xmlns:xlink="http://www.w3.org/1999/xlink" width="22px" height="22px" viewBox="0 0 22 22" version="1.1">
<g id="surface1">
<path style=" stroke:none;fill-rule:nonzero;fill:rgb(100%,100%,100%);fill-opacity:1;" d="M 22 11 C 22 17.0625 17.066406 22 11 22 C 4.9375 22 0 17.0625 0 11 C 0 4.933594 4.9375 0 11 0 C 17.066406 0 22 4.933594 22 11 Z M 22 11 "/>
<path style=" stroke:none;fill-rule:nonzero;fill:rgb(77.647059%,4.705882%,18.823529%);fill-opacity:1;" d="M 11 7.207031 C 9.484375 7.207031 8.171875 8.101562 7.566406 9.390625 C 7.558594 9.789062 7.59375 11.003906 8.351562 11.484375 C 9.035156 11.917969 9.925781 12.105469 11 11 C 12.074219 9.894531 12.984375 10.105469 13.464844 10.335938 C 13.949219 10.5625 14.585938 11.117188 14.433594 12.609375 L 14.4375 12.609375 C 14.664062 12.121094 14.792969 11.574219 14.792969 11 C 14.792969 8.902344 13.097656 7.207031 11 7.207031 Z M 11 7.207031 "/>
<path style=" stroke:none;fill-rule:nonzero;fill:rgb(0%,20.392157%,47.058824%);fill-opacity:1;" d="M 14.433594 12.609375 C 14.59375 11.121094 13.949219 10.5625 13.464844 10.335938 C 12.984375 10.105469 12.070312 9.890625 11 11 C 9.929688 12.109375 9.035156 11.917969 8.351562 11.484375 C 7.59375 11.003906 7.554688 9.789062 7.566406 9.390625 C 7.339844 9.878906 7.207031 10.425781 7.207031 11 C 7.207031 13.097656 8.902344 14.792969 11 14.792969 C 12.515625 14.792969 13.828125 13.898438 14.433594 12.609375 Z M 14.433594 12.609375 "/>
<path style=" stroke:none;fill-rule:nonzero;fill:rgb(0%,0%,0%);fill-opacity:1;" d="M 4.683594 12.9375 L 5.203125 12.589844 L 7.308594 15.746094 L 6.789062 16.09375 Z M 4.683594 12.9375 "/>
<path style=" stroke:none;fill-rule:nonzero;fill:rgb(0%,0%,0%);fill-opacity:1;" d="M 3.113281 13.984375 L 3.628906 13.640625 L 5.734375 16.796875 L 5.21875 17.140625 Z M 3.113281 13.984375 "/>
<path style=" stroke:none;fill-rule:nonzero;fill:rgb(0%,0%,0%);fill-opacity:1;" d="M 3.898438 13.464844 L 4.417969 13.117188 L 5.382812 14.5625 L 4.863281 14.910156 Z M 3.898438 13.464844 "/>
<path style=" stroke:none;fill-rule:nonzero;fill:rgb(0%,0%,0%);fill-opacity:1;" d="M 5.039062 15.171875 L 6.003906 16.617188 L 6.523438 16.273438 L 5.554688 14.824219 Z M 5.039062 15.171875 "/>
<path style=" stroke:none;fill-rule:nonzero;fill:rgb(0%,0%,0%);fill-opacity:1;" d="M 18.890625 13.976562 L 18.367188 13.632812 L 17.410156 15.082031 L 17.925781 15.425781 Z M 18.890625 13.976562 "/>
<path style=" stroke:none;fill-rule:nonzero;fill:rgb(0%,0%,0%);fill-opacity:1;" d="M 16.273438 16.796875 L 16.789062 17.140625 L 17.75 15.691406 L 17.230469 15.347656 Z M 16.273438 16.796875 "/>
<path style=" stroke:none;fill-rule:nonzero;fill:rgb(0%,0%,0%);fill-opacity:1;" d="M 18.097656 13.457031 L 17.578125 13.113281 L 16.621094 14.558594 L 17.140625 14.90625 Z M 18.097656 13.457031 "/>
<path style=" stroke:none;fill-rule:nonzero;fill:rgb(0%,0%,0%);fill-opacity:1;" d="M 15.484375 16.273438 L 16 16.617188 L 16.964844 15.171875 L 16.445312 14.828125 Z M 15.484375 16.273438 "/>
<path style=" stroke:none;fill-rule:nonzero;fill:rgb(0%,0%,0%);fill-opacity:1;" d="M 14.695312 15.753906 L 15.214844 16.097656 L 16.171875 14.652344 L 15.652344 14.304688 Z M 14.695312 15.753906 "/>
<path style=" stroke:none;fill-rule:nonzero;fill:rgb(0%,0%,0%);fill-opacity:1;" d="M 15.835938 14.035156 L 16.792969 12.589844 L 17.3125 12.933594 L 16.355469 14.378906 Z M 15.835938 14.035156 "/>
<path style=" stroke:none;fill-rule:nonzero;fill:rgb(0%,0%,0%);fill-opacity:1;" d="M 18.097656 8.535156 L 17.578125 8.882812 L 15.484375 5.714844 L 16.007812 5.371094 Z M 18.097656 8.535156 "/>
<path style=" stroke:none;fill-rule:nonzero;fill:rgb(0%,0%,0%);fill-opacity:1;" d="M 18.367188 8.359375 L 18.890625 8.015625 L 17.929688 6.566406 L 17.410156 6.910156 Z M 18.367188 8.359375 "/>
<path style=" stroke:none;fill-rule:nonzero;fill:rgb(0%,0%,0%);fill-opacity:1;" d="M 16.796875 4.851562 L 16.273438 5.191406 L 17.230469 6.644531 L 17.75 6.300781 Z M 16.796875 4.851562 "/>
<path style=" stroke:none;fill-rule:nonzero;fill:rgb(0%,0%,0%);fill-opacity:1;" d="M 15.835938 7.953125 L 16.355469 7.609375 L 17.3125 9.054688 L 16.792969 9.398438 Z M 15.835938 7.953125 "/>
<path style=" stroke:none;fill-rule:nonzero;fill:rgb(0%,0%,0%);fill-opacity:1;" d="M 15.21875 5.890625 L 14.699219 6.234375 L 15.65625 7.683594 L 16.171875 7.339844 Z M 15.21875 5.890625 "/>
<path style=" stroke:none;fill-rule:nonzero;fill:rgb(0%,0%,0%);fill-opacity:1;" d="M 5.203125 9.402344 L 4.683594 9.054688 L 6.792969 5.898438 L 7.308594 6.246094 Z M 5.203125 9.402344 "/>
<path style=" stroke:none;fill-rule:nonzero;fill:rgb(0%,0%,0%);fill-opacity:1;" d="M 4.417969 8.875 L 3.898438 8.523438 L 6.007812 5.375 L 6.527344 5.71875 Z M 4.417969 8.875 "/>
<path style=" stroke:none;fill-rule:nonzero;fill:rgb(0%,0%,0%);fill-opacity:1;" d="M 3.632812 8.347656 L 3.109375 8 L 5.21875 4.851562 L 5.742188 5.195312 Z M 3.632812 8.347656 "/>
</g>
</svg>
