<svg xmlns="http://www.w3.org/2000/svg" width="22" height="22" viewBox="0 0 22 22">
    <g fill="none">
        <path fill="#E04955" d="M22 11c0 6.075-4.925 11-11 11-.896 0-1.766-.107-2.6-.31C3.58 20.524 0 16.18 0 11S3.58 1.477 8.4.31C9.234.106 10.104 0 11 0c6.075 0 11 4.925 11 11z"/>
        <path fill="#5DB33A" d="M8.4.31v21.38C3.58 20.524 0 16.18 0 11S3.58 1.477 8.4.31z"/>
        <circle cx="8.401" cy="11" r="4.656" fill="#FED22B"/>
        <path fill="#FFF5F4" d="M8.4 14.32c-1.344 0-2.434-1.09-2.434-2.434V8.664h4.87v3.222c0 1.344-1.09 2.434-2.435 2.434z"/>
        <g fill="#4377C6">
            <path d="M.674 1.27h-.5c-.08 0-.146.067-.146.148v.377c0 .22.178.397.397.397.218 0 .396-.178.396-.397v-.377c0-.082-.066-.147-.147-.147zM1.767 1.27h-.5c-.08 0-.146.067-.146.148v.377c0 .22.177.397.396.397.22 0 .397-.178.397-.397v-.377c0-.082-.066-.147-.147-.147zM1.767.008h-.5c-.08 0-.146.065-.146.146v.378c0 .22.177.397.396.397.22 0 .397-.178.397-.397V.154c0-.08-.066-.146-.147-.146zM1.767 2.534h-.5c-.08 0-.146.066-.146.147v.377c0 .22.177.397.396.397.22 0 .397-.178.397-.397v-.377c0-.081-.066-.147-.147-.147zM2.86 1.27h-.5c-.08 0-.146.067-.146.148v.377c0 .22.177.397.396.397.219 0 .397-.178.397-.397v-.377c0-.082-.066-.147-.147-.147z" transform="translate(6.883 9.718)"/>
        </g>
        <path fill="#E5646E" d="M10.835 8.327H5.966c-.186 0-.337.15-.337.337v3.222c0 1.528 1.243 2.772 2.772 2.772 1.528 0 2.771-1.244 2.771-2.772V8.664c0-.186-.15-.337-.337-.337zm-.337 3.559c0 1.156-.941 2.097-2.097 2.097-1.157 0-2.097-.94-2.097-2.097V9h4.194v2.885z"/>
        <path fill="#5DB33A" d="M2.434 11c0 4.261 2.424 7.956 5.966 9.783v.908C3.58 20.523 0 16.18 0 11 0 5.82 3.58 1.477 8.4.31v.907C4.858 3.044 2.434 6.74 2.434 11z"/>
        <path fill="#5CA33B" d="M2.434 11c0 4.261 2.424 7.956 5.966 9.783v.908C3.58 20.523 0 16.18 0 11 0 5.82 3.58 1.477 8.4.31v.907C4.858 3.044 2.434 6.74 2.434 11z"/>
        <path fill="#DA2F3C" d="M8.4 20.783v.908c.834.202 1.704.309 2.6.309.412 0 .818-.022 1.218-.067-.47-.051-.932-.133-1.383-.242-.855-.207-1.671-.514-2.435-.908zM12.218.067C11.818.022 11.412 0 11 0c-.896 0-1.766.107-2.6.31v.907C9.164.823 9.98.516 10.835.31c.45-.11.912-.19 1.383-.242z"/>
    </g>
</svg>
